<svg width="25" height="25" viewBox="0 0 25 25" fill="none" xmlns="http://www.w3.org/2000/svg">
<path d="M8.33203 13.5417V4.6875C8.33203 4.2731 8.49665 3.87567 8.78968 3.58265C9.0827 3.28962 9.48013 3.125 9.89453 3.125C10.3089 3.125 10.7064 3.28962 10.9994 3.58265C11.2924 3.87567 11.457 4.2731 11.457 4.6875V12.5M11.457 11.9792V9.89583C11.457 9.48143 11.6217 9.084 11.9147 8.79098C12.2077 8.49795 12.6051 8.33333 13.0195 8.33333C13.4339 8.33333 13.8314 8.49795 14.1244 8.79098C14.4174 9.084 14.582 9.48143 14.582 9.89583V12.5M14.582 10.9375C14.582 10.5231 14.7467 10.1257 15.0397 9.83265C15.3327 9.53962 15.7301 9.375 16.1445 9.375C16.5589 9.375 16.9564 9.53962 17.2494 9.83265C17.5424 10.1257 17.707 10.5231 17.707 10.9375V12.5" stroke="#ffd5ae" stroke-width="1.5" stroke-linecap="round" stroke-linejoin="round"/>
<path d="M17.7079 11.9791C17.7079 11.5647 17.8726 11.1673 18.1656 10.8743C18.4586 10.5813 18.856 10.4166 19.2704 10.4166C19.6848 10.4166 20.0823 10.5813 20.3753 10.8743C20.6683 11.1673 20.8329 11.5647 20.8329 11.9791V16.6666C20.8329 18.3242 20.1745 19.9139 19.0024 21.0861C17.8303 22.2582 16.2405 22.9166 14.5829 22.9166H12.4996H12.7163C11.6812 22.9168 10.6623 22.6599 9.75105 22.169C8.8398 21.6781 8.06473 20.9686 7.49544 20.1041L7.29128 19.7916C6.96628 19.2927 5.82565 17.3041 3.86836 13.825C3.66883 13.4703 3.61553 13.0518 3.7198 12.6585C3.82407 12.2651 4.07768 11.928 4.42669 11.7187C4.79844 11.4957 5.23406 11.4032 5.66436 11.4561C6.09466 11.5089 6.49496 11.704 6.80169 12.0104L8.33294 13.5416M2.64648 5.82705C3.44588 5.24264 4.30482 4.74439 5.20898 4.34059M14.5829 3.60205C15.9394 3.96606 17.2334 4.53212 18.4215 5.28122" stroke="#ffd5ae" stroke-width="1.5" stroke-linecap="round" stroke-linejoin="round"/>
</svg>
